<svg width="16" height="16" viewBox="0 0 16 16" fill="none" xmlns="http://www.w3.org/2000/svg">
<path d="M0.740644 0.5H1.93792H3.52855L5.34311 5.36993C6.40776 8.22729 7.7161 11.7482 8.25049 13.1941L8.71948 13.0207L8.25049 13.1941L9.10271 15.4998L8.00011 15.4995L6.7838 15.4991L5.39058 12.0393C4.55493 9.96416 3.10455 6.36436 2.16748 4.03966L1.70374 4.2266L2.16748 4.03966L0.740644 0.5ZM9.24727 12.3775L9.22742 12.3848L9.24727 12.3775ZM10.8504 11.4399C10.6686 10.9487 10.4616 10.3851 10.2702 9.86112C10.0976 9.38835 9.93812 8.94902 9.82196 8.62551C9.76652 8.47113 9.7213 8.34409 9.68929 8.25272C9.69867 8.22654 9.70923 8.19715 9.72096 8.16465C9.77798 8.00663 9.86074 7.77967 9.96325 7.49993C10.1682 6.9407 10.4512 6.17308 10.7631 5.32993C11.3757 3.67355 12.0993 1.72761 12.5608 0.5H14.1073H15.2594L13.8705 3.94593L14.3134 4.12443L13.8705 3.94593L11.2872 10.3559L11.2872 10.3559L10.8504 11.4399ZM10.0473 14.1279L10.263 14.2165L10.0473 14.1279Z" fill="url(#paint0_linear_3_31)" fill-opacity="0.46"/>
<path d="M0.740644 0.5H1.93792H3.52855L5.34311 5.36993C6.40776 8.22729 7.7161 11.7482 8.25049 13.1941L8.71948 13.0207L8.25049 13.1941L9.10271 15.4998L8.00011 15.4995L6.7838 15.4991L5.39058 12.0393C4.55493 9.96416 3.10455 6.36436 2.16748 4.03966L1.70374 4.2266L2.16748 4.03966L0.740644 0.5ZM9.24727 12.3775L9.22742 12.3848L9.24727 12.3775ZM10.8504 11.4399C10.6686 10.9487 10.4616 10.3851 10.2702 9.86112C10.0976 9.38835 9.93812 8.94902 9.82196 8.62551C9.76652 8.47113 9.7213 8.34409 9.68929 8.25272C9.69867 8.22654 9.70923 8.19715 9.72096 8.16465C9.77798 8.00663 9.86074 7.77967 9.96325 7.49993C10.1682 6.9407 10.4512 6.17308 10.7631 5.32993C11.3757 3.67355 12.0993 1.72761 12.5608 0.5H14.1073H15.2594L13.8705 3.94593L14.3134 4.12443L13.8705 3.94593L11.2872 10.3559L11.2872 10.3559L10.8504 11.4399ZM10.0473 14.1279L10.263 14.2165L10.0473 14.1279Z" fill="url(#paint1_linear_3_31)" fill-opacity="0.6"/>
<path d="M0.740644 0.5H1.93792H3.52855L5.34311 5.36993C6.40776 8.22729 7.7161 11.7482 8.25049 13.1941L8.71948 13.0207L8.25049 13.1941L9.10271 15.4998L8.00011 15.4995L6.7838 15.4991L5.39058 12.0393C4.55493 9.96416 3.10455 6.36436 2.16748 4.03966L1.70374 4.2266L2.16748 4.03966L0.740644 0.5ZM9.24727 12.3775L9.22742 12.3848L9.24727 12.3775ZM10.8504 11.4399C10.6686 10.9487 10.4616 10.3851 10.2702 9.86112C10.0976 9.38835 9.93812 8.94902 9.82196 8.62551C9.76652 8.47113 9.7213 8.34409 9.68929 8.25272C9.69867 8.22654 9.70923 8.19715 9.72096 8.16465C9.77798 8.00663 9.86074 7.77967 9.96325 7.49993C10.1682 6.9407 10.4512 6.17308 10.7631 5.32993C11.3757 3.67355 12.0993 1.72761 12.5608 0.5H14.1073H15.2594L13.8705 3.94593L14.3134 4.12443L13.8705 3.94593L11.2872 10.3559L11.2872 10.3559L10.8504 11.4399ZM10.0473 14.1279L10.263 14.2165L10.0473 14.1279Z" fill="url(#paint2_linear_3_31)" fill-opacity="0.7"/>
<path d="M0.740644 0.5H1.93792H3.52855L5.34311 5.36993C6.40776 8.22729 7.7161 11.7482 8.25049 13.1941L8.71948 13.0207L8.25049 13.1941L9.10271 15.4998L8.00011 15.4995L6.7838 15.4991L5.39058 12.0393C4.55493 9.96416 3.10455 6.36436 2.16748 4.03966L1.70374 4.2266L2.16748 4.03966L0.740644 0.5ZM9.24727 12.3775L9.22742 12.3848L9.24727 12.3775ZM10.8504 11.4399C10.6686 10.9487 10.4616 10.3851 10.2702 9.86112C10.0976 9.38835 9.93812 8.94902 9.82196 8.62551C9.76652 8.47113 9.7213 8.34409 9.68929 8.25272C9.69867 8.22654 9.70923 8.19715 9.72096 8.16465C9.77798 8.00663 9.86074 7.77967 9.96325 7.49993C10.1682 6.9407 10.4512 6.17308 10.7631 5.32993C11.3757 3.67355 12.0993 1.72761 12.5608 0.5H14.1073H15.2594L13.8705 3.94593L14.3134 4.12443L13.8705 3.94593L11.2872 10.3559L11.2872 10.3559L10.8504 11.4399ZM10.0473 14.1279L10.263 14.2165L10.0473 14.1279Z" stroke="white"/>
<defs>
<linearGradient id="paint0_linear_3_31" x1="8" y1="0" x2="8" y2="16" gradientUnits="userSpaceOnUse">
<stop stop-color="#27839C"/>
<stop offset="1" stop-color="#27839C" stop-opacity="0"/>
</linearGradient>
<linearGradient id="paint1_linear_3_31" x1="8" y1="0" x2="8" y2="16" gradientUnits="userSpaceOnUse">
<stop offset="0.421875" stop-color="#114F64"/>
<stop offset="1" stop-color="#114F64" stop-opacity="0"/>
</linearGradient>
<linearGradient id="paint2_linear_3_31" x1="8" y1="0" x2="8" y2="16" gradientUnits="userSpaceOnUse">
<stop offset="0.369792" stop-color="#0B3C4A"/>
<stop offset="1" stop-color="#0B3C4A" stop-opacity="0"/>
</linearGradient>
</defs>
</svg>
