<svg width="70" height="70" viewBox="0 0 70 70" fill="none" xmlns="http://www.w3.org/2000/svg">
<path d="M38.3842 41.8678C38.5696 42.3605 38.8132 43.0113 39.102 43.7853C39.7688 45.5724 40.676 48.0149 41.6625 50.6812L45.1825 60.1951L44.4381 62.0073C44.3173 62.3013 44.2028 62.5687 44.0991 62.8004C43.5011 61.1884 42.2541 57.8263 40.8387 54.0099L37.3451 44.5889L38.0528 42.7091C38.0528 42.7091 38.0528 42.709 38.0529 42.709C38.1687 42.4014 38.2813 42.1165 38.3842 41.8678ZM22.0184 53.3023C18.3625 44.2237 12.0172 28.4748 7.91761 18.3044L0.740644 0.5H8.47839H16.6095L24.9574 22.9042C29.6154 35.4055 35.34 50.8112 37.6787 57.139L41.8652 68.4661L41.634 69.0526L41.4576 69.4999L34.9999 69.4977L28.5393 69.4956L22.0184 53.3023ZM40.6138 36.1281C40.6103 36.1175 40.607 36.1075 40.6038 36.098C40.6174 36.0584 40.6341 36.0103 40.654 35.9535C40.7194 35.7668 40.8164 35.4954 40.9419 35.1476C41.1928 34.4522 41.556 33.4561 42.0048 32.2316C42.9022 29.7826 44.1409 26.4225 45.5057 22.733C48.2352 15.3538 51.4683 6.65897 53.4828 1.30399L53.7853 0.5H61.7195H69.2594L62.2487 17.8943C58.2406 27.839 53.1546 40.4585 50.9468 45.9379L47.4101 54.7146C46.478 52.2505 44.8069 47.7186 43.3471 43.7213C42.5913 41.6515 41.8925 39.7262 41.3829 38.3069C41.128 37.5971 40.9208 37.0148 40.7774 36.6047C40.7057 36.3993 40.6506 36.239 40.6138 36.1281Z" fill="url(#paint0_linear_3_31)" fill-opacity="0.46"/>
<path d="M38.3842 41.8678C38.5696 42.3605 38.8132 43.0113 39.102 43.7853C39.7688 45.5724 40.676 48.0149 41.6625 50.6812L45.1825 60.1951L44.4381 62.0073C44.3173 62.3013 44.2028 62.5687 44.0991 62.8004C43.5011 61.1884 42.2541 57.8263 40.8387 54.0099L37.3451 44.5889L38.0528 42.7091C38.0528 42.7091 38.0528 42.709 38.0529 42.709C38.1687 42.4014 38.2813 42.1165 38.3842 41.8678ZM22.0184 53.3023C18.3625 44.2237 12.0172 28.4748 7.91761 18.3044L0.740644 0.5H8.47839H16.6095L24.9574 22.9042C29.6154 35.4055 35.34 50.8112 37.6787 57.139L41.8652 68.4661L41.634 69.0526L41.4576 69.4999L34.9999 69.4977L28.5393 69.4956L22.0184 53.3023ZM40.6138 36.1281C40.6103 36.1175 40.607 36.1075 40.6038 36.098C40.6174 36.0584 40.6341 36.0103 40.654 35.9535C40.7194 35.7668 40.8164 35.4954 40.9419 35.1476C41.1928 34.4522 41.556 33.4561 42.0048 32.2316C42.9022 29.7826 44.1409 26.4225 45.5057 22.733C48.2352 15.3538 51.4683 6.65897 53.4828 1.30399L53.7853 0.5H61.7195H69.2594L62.2487 17.8943C58.2406 27.839 53.1546 40.4585 50.9468 45.9379L47.4101 54.7146C46.478 52.2505 44.8069 47.7186 43.3471 43.7213C42.5913 41.6515 41.8925 39.7262 41.3829 38.3069C41.128 37.5971 40.9208 37.0148 40.7774 36.6047C40.7057 36.3993 40.6506 36.239 40.6138 36.1281Z" fill="url(#paint1_linear_3_31)" fill-opacity="0.6"/>
<path d="M38.3842 41.8678C38.5696 42.3605 38.8132 43.0113 39.102 43.7853C39.7688 45.5724 40.676 48.0149 41.6625 50.6812L45.1825 60.1951L44.4381 62.0073C44.3173 62.3013 44.2028 62.5687 44.0991 62.8004C43.5011 61.1884 42.2541 57.8263 40.8387 54.0099L37.3451 44.5889L38.0528 42.7091C38.0528 42.7091 38.0528 42.709 38.0529 42.709C38.1687 42.4014 38.2813 42.1165 38.3842 41.8678ZM22.0184 53.3023C18.3625 44.2237 12.0172 28.4748 7.91761 18.3044L0.740644 0.5H8.47839H16.6095L24.9574 22.9042C29.6154 35.4055 35.34 50.8112 37.6787 57.139L41.8652 68.4661L41.634 69.0526L41.4576 69.4999L34.9999 69.4977L28.5393 69.4956L22.0184 53.3023ZM40.6138 36.1281C40.6103 36.1175 40.607 36.1075 40.6038 36.098C40.6174 36.0584 40.6341 36.0103 40.654 35.9535C40.7194 35.7668 40.8164 35.4954 40.9419 35.1476C41.1928 34.4522 41.556 33.4561 42.0048 32.2316C42.9022 29.7826 44.1409 26.4225 45.5057 22.733C48.2352 15.3538 51.4683 6.65897 53.4828 1.30399L53.7853 0.5H61.7195H69.2594L62.2487 17.8943C58.2406 27.839 53.1546 40.4585 50.9468 45.9379L47.4101 54.7146C46.478 52.2505 44.8069 47.7186 43.3471 43.7213C42.5913 41.6515 41.8925 39.7262 41.3829 38.3069C41.128 37.5971 40.9208 37.0148 40.7774 36.6047C40.7057 36.3993 40.6506 36.239 40.6138 36.1281Z" fill="url(#paint2_linear_3_31)" fill-opacity="0.7"/>
<path d="M38.3842 41.8678C38.5696 42.3605 38.8132 43.0113 39.102 43.7853C39.7688 45.5724 40.676 48.0149 41.6625 50.6812L45.1825 60.1951L44.4381 62.0073C44.3173 62.3013 44.2028 62.5687 44.0991 62.8004C43.5011 61.1884 42.2541 57.8263 40.8387 54.0099L37.3451 44.5889L38.0528 42.7091C38.0528 42.7091 38.0528 42.709 38.0529 42.709C38.1687 42.4014 38.2813 42.1165 38.3842 41.8678ZM22.0184 53.3023C18.3625 44.2237 12.0172 28.4748 7.91761 18.3044L0.740644 0.5H8.47839H16.6095L24.9574 22.9042C29.6154 35.4055 35.34 50.8112 37.6787 57.139L41.8652 68.4661L41.634 69.0526L41.4576 69.4999L34.9999 69.4977L28.5393 69.4956L22.0184 53.3023ZM40.6138 36.1281C40.6103 36.1175 40.607 36.1075 40.6038 36.098C40.6174 36.0584 40.6341 36.0103 40.654 35.9535C40.7194 35.7668 40.8164 35.4954 40.9419 35.1476C41.1928 34.4522 41.556 33.4561 42.0048 32.2316C42.9022 29.7826 44.1409 26.4225 45.5057 22.733C48.2352 15.3538 51.4683 6.65897 53.4828 1.30399L53.7853 0.5H61.7195H69.2594L62.2487 17.8943C58.2406 27.839 53.1546 40.4585 50.9468 45.9379L47.4101 54.7146C46.478 52.2505 44.8069 47.7186 43.3471 43.7213C42.5913 41.6515 41.8925 39.7262 41.3829 38.3069C41.128 37.5971 40.9208 37.0148 40.7774 36.6047C40.7057 36.3993 40.6506 36.239 40.6138 36.1281Z" stroke="white"/>
<defs>
<linearGradient id="paint0_linear_3_31" x1="35" y1="0" x2="35" y2="70" gradientUnits="userSpaceOnUse">
<stop stop-color="#27839C"/>
<stop offset="1" stop-color="#27839C" stop-opacity="0"/>
</linearGradient>
<linearGradient id="paint1_linear_3_31" x1="35" y1="0" x2="35" y2="70" gradientUnits="userSpaceOnUse">
<stop offset="0.421875" stop-color="#114F64"/>
<stop offset="1" stop-color="#114F64" stop-opacity="0"/>
</linearGradient>
<linearGradient id="paint2_linear_3_31" x1="35" y1="0" x2="35" y2="70" gradientUnits="userSpaceOnUse">
<stop offset="0.369792" stop-color="#0B3C4A"/>
<stop offset="1" stop-color="#0B3C4A" stop-opacity="0"/>
</linearGradient>
</defs>
</svg>
